<svg width="71" height="63" viewBox="0 0 71 63" fill="none" xmlns="http://www.w3.org/2000/svg">
<path d="M0.690544 0.754779C0.573191 1.57429 5.77694 2.76178 13.8366 5.16132C18.5096 6.54469 23.0789 8.25665 27.5104 10.2844C32.8309 12.7315 37.7796 15.9169 42.2102 19.7464C46.5684 23.576 50.1884 28.1713 52.8911 33.305C55.1852 37.5687 57.0794 42.0356 58.5497 46.6486C59.5957 49.9641 60.3103 52.8062 60.8525 54.9997C60.1396 54.4561 59.4362 53.9295 58.7558 53.4387C56.9952 52.1683 55.3602 51.0842 53.9351 50.2367C51.085 48.5415 49.0748 47.7924 48.58 48.3911C48.0852 48.9898 49.1997 50.8229 51.4013 53.3027C52.5021 54.5425 53.8748 55.9441 55.4541 57.4339C56.2437 58.1787 57.085 58.9456 57.9697 59.7255C58.4152 60.1117 58.8681 60.5044 59.3285 60.9036L60.0304 61.4978C60.1797 61.6183 60.1808 61.6352 60.5213 61.8956C60.7632 62.0749 61.0258 62.2243 61.3034 62.3408C61.7819 62.542 62.3013 62.6269 62.819 62.5883C63.3366 62.5497 63.8377 62.3888 64.2811 62.1189C64.5656 61.9465 64.8249 61.7357 65.0518 61.4924C65.1866 61.3487 65.3118 61.1962 65.4267 61.0361L65.6025 60.7823C65.8174 60.4646 66.0136 60.1463 66.1935 59.8311C66.5282 59.236 66.8315 58.6238 67.102 57.9969C67.611 56.8149 67.9844 55.7904 68.3652 54.7619C69.1088 52.7222 69.7072 50.8539 70.1352 49.252C70.9912 46.0483 71.1653 43.9101 70.4546 43.5968C69.744 43.2836 68.2831 44.8545 66.4956 47.6477C65.6019 49.0443 64.6266 50.7464 63.6225 52.6713C63.5219 52.8704 63.416 53.0795 63.3133 53.2826C63.1997 50.7245 62.8957 48.1785 62.4037 45.6656C61.3984 40.5748 59.754 35.6313 57.5095 30.9526C54.7558 25.0662 50.8129 19.8138 45.9292 15.5263C41.0734 11.3128 35.5504 7.93645 29.5865 5.53543C24.8066 3.60927 19.8386 2.18751 14.7633 1.29329C6.15827 -0.183878 0.784146 0.0392114 0.690544 0.754779Z" fill="#468E0D"/>
</svg>
